<?xml version="1.0" standalone="no"?>
<!DOCTYPE svg PUBLIC "-//W3C//DTD SVG 20010904//EN"
 "http://www.w3.org/TR/2001/REC-SVG-20010904/DTD/svg10.dtd">
<svg version="1.0" xmlns="http://www.w3.org/2000/svg"
 width="316.000000pt" height="315.000000pt" viewBox="0 0 316.000000 315.000000"
 preserveAspectRatio="xMidYMid meet"  >

<g transform="translate(0.000000,315.000000) scale(0.100000,-0.100000)"
fill="#000000" stroke="none">
<path d="M1423 2993 c9 -2 23 -2 30 0 6 3 -1 5 -18 5 -16 0 -22 -2 -12 -5z" fill="#fff"/>
<path d="M1718 2993 c6 -2 18 -2 25 0 6 3 1 5 -13 5 -14 0 -19 -2 -12 -5z" fill="#fff"/>
<path d="M1470 2964 c-14 -2 -63 -9 -110 -15 -113 -15 -261 -60 -374 -113
-403 -188 -694 -561 -783 -1003 -24 -122 -24 -394 0 -516 113 -564 534 -987
1100 -1109 134 -28 386 -31 525 -5 286 54 529 183 737 392 165 165 270 334
341 552 89 273 89 584 -2 861 -155 474 -558 831 -1053 932 -92 19 -326 34
-381 24z m280 -25 c392 -48 752 -269 969 -594 111 -166 170 -305 213 -503 30
-139 30 -395 -1 -540 -58 -274 -182 -503 -382 -703 -249 -249 -564 -384 -924
-396 -252 -8 -437 31 -660 142 -155 77 -271 162 -387 284 -180 189 -297 412
-355 673 -25 118 -25 428 0 546 82 375 298 684 623 894 152 98 391 181 574
201 77 8 250 6 330 -4z" fill="#fff"/>
<path d="M1488 2882 c7 -5 14 -22 15 -38 2 -27 0 -29 -40 -32 -42 -3 -43 -2
-43 27 0 16 6 32 13 34 6 3 -10 6 -38 6 -37 0 -46 -2 -33 -9 23 -14 37 -138
17 -151 -9 -6 0 -9 28 -9 l41 0 -15 30 c-21 44 -11 60 37 60 39 0 40 -1 40
-35 0 -19 -4 -35 -10 -35 -5 0 -10 -3 -10 -8 0 -4 20 -6 45 -4 37 3 43 6 32
16 -8 6 -18 38 -21 73 -6 53 -4 63 11 72 14 8 8 10 -32 11 -30 0 -45 -4 -37
-8z" fill="#fff"/>
<path d="M1801 2856 c-28 -15 -50 -52 -51 -83 0 -12 12 -36 27 -53 23 -27 32
-31 65 -28 22 2 38 -1 38 -7 0 -18 20 20 20 39 0 18 -2 18 -24 -3 -48 -45 -95
-8 -82 63 13 71 90 89 103 25 6 -31 18 -29 25 6 2 15 -6 24 -35 38 -46 20 -54
21 -86 3z" fill="#fff"/>
<path d="M1171 2753 c-6 -49 -15 -89 -21 -91 -21 -7 -9 -19 15 -14 25 4 45 22
26 22 -6 0 -11 9 -11 20 0 30 50 47 67 24 10 -14 10 -20 0 -33 -10 -12 -9 -14
8 -7 11 4 32 10 48 13 15 3 27 10 27 15 0 5 -4 7 -9 3 -11 -6 -31 13 -88 86
-21 26 -41 48 -44 49 -4 0 -11 -39 -18 -87z m43 -15 c-12 -19 -31 -7 -26 17 4
24 5 24 17 8 7 -10 11 -21 9 -25z" fill="#fff"/>
<path d="M2021 2764 c-42 -35 -43 -84 -2 -125 73 -73 190 -2 151 92 -14 33
-55 59 -94 59 -13 0 -38 -12 -55 -26z m107 -6 c23 -23 14 -77 -17 -108 -67
-68 -124 27 -59 98 23 24 57 29 76 10z" fill="#fff"/>
<path d="M1010 2765 c-16 -9 -19 -14 -9 -15 14 0 55 -67 46 -76 -2 -2 -31 8
-65 23 -56 24 -65 25 -89 13 -26 -13 -26 -14 -7 -17 24 -4 81 -113 70 -132
-10 -15 4 -13 34 4 23 13 23 14 4 15 -14 0 -27 14 -42 46 -13 26 -22 48 -20
49 2 2 31 -10 65 -25 111 -51 109 -52 66 35 -32 64 -36 77 -23 85 24 15 -2 11
-30 -5z" fill="#fff"/>
<path d="M1355 2670 c-275 -58 -514 -210 -680 -434 -145 -197 -215 -413 -215
-665 1 -400 201 -752 549 -961 166 -99 357 -150 569 -150 200 0 339 33 512
121 556 285 772 970 478 1519 -145 271 -407 478 -706 557 -134 35 -373 42
-507 13z m445 -17 c438 -88 782 -436 865 -876 31 -166 15 -394 -39 -555 -164
-483 -654 -798 -1156 -743 -275 29 -510 146 -698 345 -464 491 -373 1288 190
1663 251 167 546 226 838 166z" fill="#fff"/>
<path d="M1538 2643 c23 -2 59 -2 80 0 20 2 1 4 -43 4 -44 0 -61 -2 -37 -4z" fill="#fff"/>
<path d="M1418 2633 c7 -3 16 -2 19 1 4 3 -2 6 -13 5 -11 0 -14 -3 -6 -6z" fill="#fff"/>
<path d="M1065 2520 c-3 -6 1 -7 9 -4 18 7 21 14 7 14 -6 0 -13 -4 -16 -10z" fill="#fff"/>
<path d="M1004 2484 c-18 -14 -18 -15 4 -4 12 6 22 13 22 15 0 8 -5 6 -26 -11z" fill="#fff"/>
<path d="M959 2453 c-13 -16 -12 -17 4 -4 9 7 17 15 17 17 0 8 -8 3 -21 -13z" fill="#fff"/>
<path d="M2190 2456 c0 -2 8 -10 18 -17 15 -13 16 -12 3 4 -13 16 -21 21 -21
13z" fill="#fff"/>
<path d="M919 2423 c-13 -16 -12 -17 4 -4 9 7 17 15 17 17 0 8 -8 3 -21 -13z" fill="#fff"/>
<path d="M2245 2410 c10 -11 20 -20 23 -20 3 0 -3 9 -13 20 -10 11 -20 20 -23
20 -3 0 3 -9 13 -20z" fill="#fff"/>
<path d="M859 2373 l-34 -38 38 34 c20 19 37 36 37 38 0 8 -8 0 -41 -34z" fill="#fff"/>
<path d="M2335 2330 c33 -33 62 -60 64 -60 3 0 -21 27 -54 60 -33 33 -62 60
-64 60 -3 0 21 -27 54 -60z" fill="#fff"/>
<path d="M1546 2341 c-31 -34 -151 -90 -237 -111 -46 -11 -132 -23 -191 -27
l-108 -6 0 -42 c0 -154 40 -390 91 -529 61 -169 158 -284 331 -391 51 -31 103
-67 116 -78 l22 -20 23 20 c12 11 65 47 117 79 109 67 219 171 268 255 78 134
135 361 149 595 l6 114 -64 0 c-72 0 -220 23 -290 44 -61 19 -139 59 -177 90
-36 31 -34 31 -56 7z m4 -291 l0 -230 -239 0 -239 0 -6 43 c-10 67 -26 229
-26 263 l0 31 83 7 c162 13 315 52 382 96 17 11 33 20 38 20 4 0 7 -103 7
-230z m142 173 c11 -9 37 -18 59 -19 51 -3 57 -9 34 -34 l-18 -20 -24 22 -23
21 -25 -23 -25 -24 -20 22 c-24 26 -25 30 -3 54 20 22 22 22 45 1z m-83 -17
c9 -10 8 -16 -4 -26 -13 -11 -15 -8 -15 14 0 30 3 32 19 12z m279 -31 c1 -1
-4 -7 -11 -14 -11 -8 -18 -6 -33 10 -18 20 -18 20 11 13 17 -4 31 -8 33 -9z
m82 -15 c0 -5 -2 -10 -4 -10 -3 0 -8 5 -11 10 -3 6 -1 10 4 10 6 0 11 -4 11
-10z m-275 -40 c18 -20 18 -21 -3 -43 l-22 -21 -22 21 c-21 22 -21 23 -3 43
10 11 21 20 25 20 4 0 15 -9 25 -20z m100 0 c17 -19 17 -21 0 -40 -22 -25 -30
-25 -54 -1 -18 18 -18 19 2 40 26 26 29 26 52 1z m100 0 c17 -19 17 -21 0 -40
-10 -11 -23 -20 -30 -20 -7 0 -20 9 -30 20 -17 19 -17 21 0 40 10 11 23 20 30
20 7 0 20 -9 30 -20z m90 0 c18 -20 18 -21 -3 -43 l-22 -21 -22 21 c-21 22
-21 23 -3 43 10 11 21 20 25 20 4 0 15 -9 25 -20z m100 0 c18 -20 18 -21 -3
-43 l-22 -21 -22 21 c-21 22 -21 23 -3 43 10 11 21 20 25 20 4 0 15 -9 25 -20z
m-478 -37 c-16 -16 -17 -15 -17 17 0 32 1 33 17 17 16 -16 16 -18 0 -34z m103
-78 c0 -7 -9 -20 -20 -30 -20 -18 -21 -18 -42 3 l-22 22 24 25 c22 23 25 24
42 8 10 -9 18 -21 18 -28z m82 -27 l-22 -22 -25 24 -25 24 22 23 22 24 25 -26
25 -25 -22 -22z m96 5 l-22 -23 -23 22 -23 22 22 23 22 23 23 -22 23 -22 -22
-23z m97 -2 l-25 -25 -22 22 -22 22 24 25 24 25 23 -22 24 -22 -26 -25z m105
23 c0 -12 -7 -27 -15 -34 -13 -10 -19 -10 -35 5 -24 22 -25 33 -4 56 13 15 20
16 35 6 10 -6 19 -21 19 -33z m-481 12 c9 -10 8 -16 -4 -26 -13 -11 -15 -8
-15 14 0 30 3 32 19 12z m83 -83 c22 -20 23 -31 2 -54 -15 -17 -18 -17 -40 -2
-28 18 -30 30 -7 55 20 22 22 22 45 1z m103 -3 c18 -20 18 -21 -5 -45 l-24
-25 -23 22 -23 22 22 23 c26 28 30 28 53 3z m93 -47 l-22 -23 -23 22 -23 22
22 23 22 23 23 -22 23 -22 -22 -23z m100 44 l22 -23 -23 -22 -23 -22 -24 25
c-23 24 -23 25 -5 45 23 25 27 25 53 -3z m87 13 c4 -6 3 -35 0 -65 -6 -46 -10
-55 -28 -55 -19 0 -19 1 -3 18 15 18 15 20 -4 37 -24 22 -25 33 -3 57 18 20
29 23 38 8z m-466 -24 c9 -10 8 -16 -4 -26 -13 -11 -15 -8 -15 14 0 30 3 32
19 12z m81 -81 c11 -13 8 -15 -20 -15 -28 0 -31 2 -20 15 7 8 16 15 20 15 4 0
13 -7 20 -15z m100 0 c11 -13 8 -15 -20 -15 -28 0 -31 2 -20 15 7 8 16 15 20
15 4 0 13 -7 20 -15z m98 -2 c2 -8 -6 -13 -22 -13 -25 0 -33 10 -19 24 10 10
36 3 41 -11z m92 2 c11 -13 8 -15 -20 -15 -28 0 -31 2 -20 15 7 8 16 15 20 15
4 0 13 -7 20 -15z m-871 -82 c0 -25 -1 -26 -9 -8 -12 27 -12 35 0 35 6 0 10
-12 9 -27z m41 -54 c0 -51 -4 -78 -10 -74 -5 3 -10 40 -10 81 0 43 4 74 10 74
6 0 10 -34 10 -81z m30 -36 c0 -80 -3 -113 -10 -103 -13 20 -13 220 0 220 6 0
10 -46 10 -117z m40 -35 c0 -103 -4 -148 -10 -138 -13 20 -13 290 0 290 6 0
10 -57 10 -152z m40 -24 c0 -114 -3 -173 -10 -169 -6 4 -10 73 -10 176 0 106
4 169 10 169 6 0 10 -65 10 -176z m30 -21 c0 -132 -4 -193 -10 -183 -13 20
-13 380 0 380 6 0 10 -72 10 -197z m40 -14 c0 -137 -3 -208 -10 -204 -6 4 -10
85 -10 211 0 129 4 204 10 204 6 0 10 -77 10 -211z m40 -14 c0 -143 -4 -225
-10 -225 -6 0 -10 82 -10 225 0 143 4 225 10 225 6 0 10 -82 10 -225z m40 -15
c0 -153 -4 -240 -10 -240 -6 0 -10 87 -10 240 0 153 4 240 10 240 6 0 10 -87
10 -240z m30 -10 c0 -160 -4 -250 -10 -250 -6 0 -10 90 -10 250 0 160 4 250
10 250 6 0 10 -90 10 -250z m40 -16 c0 -174 -3 -263 -10 -259 -6 4 -10 103
-10 266 0 166 4 259 10 259 6 0 10 -95 10 -266z m40 -9 c0 -177 -4 -275 -10
-275 -6 0 -10 98 -10 275 0 177 4 275 10 275 6 0 10 -98 10 -275z m30 -11 c0
-187 -3 -283 -10 -279 -6 4 -10 110 -10 286 0 179 4 279 10 279 6 0 10 -102
10 -286z m483 234 c-44 -151 -105 -257 -195 -345 -58 -55 -98 -84 -210 -152
l-38 -23 0 286 0 286 229 0 230 0 -16 -52z" fill="#fff"/>
<path d="M1338 2118 c-22 -22 -66 -23 -96 -2 -25 17 -31 4 -7 -16 9 -7 13 -15
10 -18 -3 -3 -14 3 -25 13 -11 10 -23 15 -26 12 -4 -4 4 -16 17 -27 l24 -21
-34 17 c-19 9 -58 17 -85 18 -47 1 -51 -1 -51 -23 0 -14 9 -28 20 -35 11 -5
32 -18 47 -28 15 -10 36 -18 48 -18 23 0 25 -17 5 -44 -8 -11 -15 -24 -15 -29
0 -15 30 14 46 46 24 45 26 27 4 -31 -22 -57 -25 -76 -11 -67 5 3 12 19 16 35
7 34 25 41 25 10 0 -26 35 -61 54 -54 8 3 21 22 29 42 l15 37 17 -40 c9 -22
19 -35 22 -28 2 7 -5 33 -16 59 -29 64 -26 78 6 26 14 -24 28 -41 31 -38 2 3
-3 17 -12 30 -21 33 -20 46 3 46 20 0 107 42 125 60 6 6 4 16 -5 26 -10 12
-25 15 -64 11 -27 -2 -59 -8 -70 -12 -20 -8 -20 -8 -1 13 22 25 10 29 -20 7
-27 -18 -39 -7 -17 17 21 24 13 30 -9 6z m-140 -60 c34 -12 61 -27 59 -32 -5
-17 -87 -19 -106 -4 -9 8 -28 19 -43 26 -16 6 -28 16 -28 22 0 17 51 12 118
-12z m296 13 c22 -8 19 -11 -44 -43 -36 -19 -60 -22 -97 -12 -38 10 -26 22 40
43 69 22 74 23 101 12z m-164 -96 c0 -10 -11 -15 -35 -15 -24 0 -35 5 -35 15
0 10 11 15 35 15 24 0 35 -5 35 -15z m-17 -66 c-8 -8 -16 -8 -30 0 -16 9 -14
10 12 11 21 0 26 -3 18 -11z" fill="#fff"/>
<path d="M1760 1730 c0 -5 -9 -10 -21 -10 -33 0 -89 -62 -89 -99 0 -17 4 -31
9 -31 5 0 12 -17 16 -37 9 -49 37 -102 70 -133 l27 -25 35 40 c21 24 41 63 50
97 9 32 20 58 25 58 4 0 8 11 8 24 0 36 -41 90 -78 101 -17 5 -32 13 -32 17 0
4 -4 8 -10 8 -5 0 -10 -4 -10 -10z m-10 -40 c0 -5 -5 -10 -11 -10 -5 0 -7 5
-4 10 3 6 8 10 11 10 2 0 4 -4 4 -10z m50 0 c0 -5 -5 -10 -11 -10 -5 0 -7 5
-4 10 3 6 8 10 11 10 2 0 4 -4 4 -10z m-70 -24 c0 -3 -4 -8 -10 -11 -5 -3 -10
-1 -10 4 0 6 5 11 10 11 6 0 10 -2 10 -4z m50 -6 c0 -5 -4 -10 -10 -10 -5 0
-10 5 -10 10 0 6 5 10 10 10 6 0 10 -4 10 -10z m50 0 c0 -5 -4 -10 -10 -10 -5
0 -10 5 -10 10 0 6 5 10 10 10 6 0 10 -4 10 -10z m-130 -20 c0 -5 -5 -10 -11
-10 -5 0 -7 5 -4 10 3 6 8 10 11 10 2 0 4 -4 4 -10z m50 0 c0 -5 -5 -10 -11
-10 -5 0 -7 5 -4 10 3 6 8 10 11 10 2 0 4 -4 4 -10z m55 0 c3 -5 -1 -10 -10
-10 -9 0 -13 5 -10 10 3 6 8 10 10 10 2 0 7 -4 10 -10z m50 0 c3 -5 1 -10 -4
-10 -6 0 -11 5 -11 10 0 6 2 10 4 10 3 0 8 -4 11 -10z m-5 -64 c0 -27 -31
-101 -52 -123 -26 -28 -41 -30 -33 -4 5 16 2 18 -17 14 l-23 -6 20 23 20 23
-30 -7 -30 -6 24 20 c28 24 22 37 -8 20 -28 -15 -27 4 1 24 12 9 19 19 15 22
-4 4 -13 1 -22 -6 -17 -14 -31 -8 -20 9 10 17 155 14 155 -3z"/>
<path d="M769 2283 c-20 -21 -48 -56 -63 -78 l-28 -40 29 35 c15 19 45 54 67
77 48 53 43 57 -5 6z" fill="#fff"/>
<path d="M894 2249 c-9 -19 -16 -57 -16 -93 l-1 -61 -20 48 c-31 74 -67 62
-67 -23 0 -36 27 -82 67 -115 7 -5 16 -29 21 -51 l9 -42 -34 24 c-35 23 -63
23 -63 -1 0 -37 39 -102 72 -119 23 -12 43 -35 57 -63 l21 -44 -34 26 c-44 34
-70 30 -74 -10 -3 -39 2 -45 71 -84 50 -29 107 -84 107 -105 0 -4 -14 4 -31
18 -35 29 -40 31 -57 14 -35 -35 24 -109 102 -130 29 -8 58 -25 79 -47 33 -35
33 -35 -34 -8 -14 6 -33 7 -43 4 -40 -16 3 -79 66 -95 24 -7 61 -16 83 -22 22
-6 53 -21 69 -35 l30 -24 -39 9 c-36 8 -75 -1 -75 -17 0 -4 10 -17 22 -30 l22
-23 -35 6 c-92 18 -205 55 -217 71 -9 13 -11 35 -7 75 6 52 5 59 -19 83 -24
24 -31 26 -103 23 l-78 -3 0 -55 c0 -48 -5 -62 -39 -109 l-40 -54 77 8 c119
11 146 -16 115 -117 -9 -32 -9 -44 5 -72 13 -29 25 -36 84 -54 228 -69 358
-86 633 -86 186 1 246 5 345 22 195 36 306 69 338 103 31 34 32 40 14 100 -26
87 6 114 120 103 l76 -7 -43 58 c-40 54 -42 61 -37 105 7 57 3 60 -89 60 -56
0 -68 -3 -91 -26 -23 -24 -25 -30 -19 -84 9 -76 -5 -89 -126 -119 -51 -13
-102 -25 -113 -28 -19 -5 -19 -4 3 16 12 12 22 26 22 31 0 19 -36 29 -73 20
-20 -4 -37 -7 -37 -5 0 12 84 55 120 60 52 8 76 19 108 48 46 43 9 78 -55 52
l-38 -16 32 33 c20 21 51 39 79 46 52 14 114 68 114 100 0 30 -39 36 -72 12
-16 -12 -28 -18 -28 -14 0 19 47 66 94 92 55 31 76 65 76 118 0 32 -18 30 -63
-7 l-38 -31 22 45 c14 29 33 50 55 60 41 20 64 54 71 106 5 33 2 42 -12 47
-13 5 -27 -3 -52 -29 -20 -23 -33 -31 -33 -22 0 28 27 80 59 115 56 61 64 150
14 150 -18 0 -28 -9 -39 -35 -7 -19 -15 -45 -15 -57 -1 -13 -5 10 -9 50 -4 49
-13 81 -27 100 -26 35 -47 35 -51 -2 -6 -50 7 -91 39 -124 38 -39 65 -122 39
-122 -5 0 -10 11 -10 24 0 13 -9 34 -19 47 -27 33 -43 15 -49 -54 -4 -46 -1
-57 23 -85 17 -20 29 -49 32 -75 l5 -42 -19 34 c-20 37 -48 60 -59 48 -17 -16
-16 -123 0 -155 9 -17 15 -46 15 -64 -2 -30 -2 -31 -6 -5 -2 15 -13 32 -24 37
-16 9 -22 5 -39 -22 -27 -45 -34 -90 -20 -132 6 -20 8 -46 4 -58 -8 -22 -8
-21 -14 7 -4 24 -10 30 -30 30 -35 0 -70 -71 -70 -140 0 -28 -6 -59 -13 -69
-12 -16 -13 -14 -9 18 3 28 0 37 -14 43 -13 5 -27 -5 -56 -38 -30 -35 -38 -52
-38 -84 0 -28 -8 -49 -26 -70 -17 -21 -22 -23 -15 -8 6 12 11 31 11 42 0 51
-99 -2 -122 -65 l-12 -34 -117 0 -117 0 -7 30 c-7 33 -80 100 -109 100 -25 0
-30 -24 -11 -59 21 -41 10 -40 -15 2 -11 17 -20 46 -20 63 0 16 -14 52 -30 78
-24 37 -35 47 -53 44 -18 -2 -22 -9 -22 -41 0 -20 -1 -37 -2 -37 -11 0 -25 52
-26 99 -2 46 -8 65 -30 95 -34 44 -59 44 -67 1 -5 -27 -6 -28 -12 -8 -3 11 -1
41 4 65 8 35 7 57 -6 101 -20 68 -40 74 -64 20 l-17 -38 -3 32 c-2 18 6 49 18
74 24 45 22 84 -5 126 -21 31 -32 29 -55 -9 -33 -55 -25 0 10 67 53 102 30
204 -29 129 -20 -25 -21 -25 -21 -6 0 12 14 35 31 53 37 37 49 68 49 119 0 29
-5 42 -19 50 -27 14 -29 14 -47 -21z m1336 -63 c0 -14 -3 -16 -14 -7 -7 6 -13
23 -13 36 0 23 1 24 13 8 7 -10 14 -26 14 -37z m-1295 4 c-18 -20 -20 -34 -2
-24 6 4 3 -3 -8 -15 -18 -21 -20 -21 -26 -4 -11 26 -10 35 1 28 6 -3 10 5 10
18 0 20 4 24 20 20 19 -5 19 -7 5 -23z m1311 -45 c0 -19 -1 -35 -1 -35 -1 0
-11 13 -23 30 -14 18 -17 27 -8 24 8 -3 17 -1 21 5 10 17 11 14 11 -24z
m-1406 -38 c0 -16 -3 -18 -12 -9 -6 6 -13 21 -15 33 -3 18 -1 20 12 9 8 -7 15
-22 15 -33z m1485 14 c3 -5 0 -13 -6 -16 -5 -4 -8 -12 -6 -19 3 -6 -4 -22 -14
-35 l-19 -23 0 31 c0 17 5 31 10 31 6 0 10 9 10 20 0 21 14 27 25 11z m-1467
-75 c-2 -10 -9 -6 -22 12 -11 14 -14 22 -8 18 6 -3 14 -1 19 6 5 10 8 8 11 -4
2 -10 2 -24 0 -32z m72 -50 c-13 -13 -13 -29 1 -20 6 3 3 -9 -6 -27 -20 -38
-30 -52 -23 -29 3 8 1 25 -3 38 -6 17 -6 21 2 16 8 -5 10 1 7 20 -3 14 -1 26
3 26 5 0 9 8 10 18 0 12 3 10 10 -7 6 -16 6 -28 -1 -35z m1299 24 c5 0 6 -12
3 -26 -3 -18 -1 -25 6 -20 6 4 8 -2 5 -14 -7 -26 -19 -25 -34 1 -8 15 -8 19 0
15 14 -9 15 6 1 20 -5 5 -6 21 -3 34 6 19 8 21 11 8 2 -10 7 -18 11 -18z
m-1376 -123 c4 -10 11 -15 17 -12 5 3 10 -3 10 -14 0 -10 3 -27 7 -37 5 -13 0
-11 -18 7 -13 13 -23 28 -21 33 2 5 -2 13 -9 17 -7 4 -14 17 -16 29 -3 18 -1
19 10 8 7 -7 16 -21 20 -31z m1464 22 c-2 -11 -9 -24 -16 -28 -7 -4 -11 -12
-9 -17 2 -5 -8 -20 -21 -33 -18 -18 -23 -20 -18 -7 4 10 7 27 7 37 0 11 5 17
10 14 6 -3 13 2 17 12 6 16 24 42 30 43 2 0 1 -9 0 -21z m-1353 -120 c-1 -16
-2 -41 -3 -56 l-2 -28 -13 30 c-10 25 -13 62 -7 98 3 21 26 -19 25 -44z m1241
9 c1 -18 -4 -46 -11 -63 l-13 -30 -2 30 c-4 70 -4 81 6 91 14 16 18 10 20 -28z
m-1302 -109 c3 -12 0 -15 -14 -12 -10 3 -17 9 -14 13 3 5 1 11 -5 15 -5 3 -10
10 -10 16 0 15 38 -13 43 -32z m1367 16 c-7 -8 -9 -15 -4 -15 10 0 -17 -20
-28 -20 -12 0 4 34 21 47 21 15 27 8 11 -12z m-1329 -67 c9 -16 8 -16 -20 -1
-26 15 -27 19 -13 29 13 10 18 10 21 1 2 -7 8 -20 12 -29z m1306 17 c-1 -1
-14 -8 -28 -18 l-27 -16 11 28 c9 24 13 27 28 18 10 -6 17 -12 16 -12z m-1226
-52 c-11 -23 -10 -25 3 -13 13 10 16 10 16 -1 0 -8 -4 -20 -9 -28 -7 -11 -11
-10 -20 6 -5 11 -8 23 -4 26 3 4 0 13 -7 22 -8 10 -9 15 -2 15 7 0 9 7 5 18
-6 16 -5 16 11 -1 16 -15 17 -22 7 -44z m1115 42 c-3 -8 0 -15 6 -15 7 0 6 -5
-2 -15 -7 -9 -10 -18 -7 -22 5 -5 -19 -63 -26 -63 -1 0 -3 16 -4 36 -1 30 1
34 13 23 13 -10 13 -8 4 15 -7 20 -7 31 3 41 16 19 21 19 13 0z m-1166 -129
c0 5 7 0 16 -11 8 -11 17 -19 20 -17 3 2 14 -8 25 -22 11 -15 16 -26 10 -26
-5 0 -13 5 -16 10 -3 6 -16 10 -28 10 -20 0 -20 0 -1 14 14 11 15 14 4 14 -31
-2 -53 2 -47 9 4 3 1 13 -6 22 -11 14 -10 14 6 2 9 -7 17 -10 17 -5z m1221 1
c-6 -8 -8 -17 -4 -20 6 -7 -16 -11 -47 -9 -11 0 -10 -3 4 -14 20 -14 20 -14 0
-14 -11 0 -26 -6 -33 -12 -8 -8 -7 -1 3 20 9 18 21 30 26 27 6 -4 13 1 16 9 3
9 10 14 14 11 5 -3 11 -1 15 5 3 5 9 10 12 10 3 0 0 -6 -6 -13z m-1074 -85
c-5 -25 -4 -25 9 -7 13 17 14 16 14 -20 l0 -39 -17 24 c-10 14 -17 29 -15 34
1 4 -5 14 -15 22 -10 8 -13 14 -6 14 8 0 10 7 6 18 -6 16 -6 16 11 -1 12 -12
16 -27 13 -45z m929 43 c-3 -8 0 -15 7 -15 7 0 6 -4 -3 -10 -8 -5 -15 -15 -15
-22 0 -7 -8 -24 -18 -38 l-17 -24 0 39 c0 36 1 37 14 20 13 -18 14 -18 9 7 -3
15 1 33 8 42 18 20 23 20 15 1z m-1131 -105 c4 -7 -3 -8 -20 -4 l-26 6 32 -31
c17 -18 29 -34 26 -37 -3 -3 -15 4 -26 15 -20 20 -41 28 -41 15 0 -3 11 -15
25 -26 14 -11 25 -26 25 -34 0 -10 -5 -9 -20 6 -19 19 -40 26 -40 14 0 -3 11
-15 25 -26 14 -11 25 -24 25 -30 0 -6 -8 -4 -18 5 -31 28 -47 19 -18 -9 29
-30 36 -56 9 -32 -33 28 -47 33 -40 15 6 -15 -2 -17 -58 -17 -36 0 -65 3 -65
6 0 3 14 24 31 45 27 35 30 43 24 84 l-7 45 75 0 c42 0 79 -5 82 -10z m1459
-35 c-5 -38 -3 -50 18 -78 43 -57 44 -55 -37 -59 -62 -2 -72 -1 -58 9 9 7 14
15 11 18 -3 3 -17 -4 -31 -16 -35 -27 -35 -5 -1 26 15 14 21 25 14 25 -7 0
-22 -7 -32 -17 -11 -10 -18 -12 -18 -4 0 7 12 23 26 36 15 14 21 25 14 25 -7
0 -22 -7 -32 -17 -10 -9 -18 -11 -18 -5 0 6 10 20 22 32 30 28 17 35 -17 8
l-28 -21 13 24 c7 13 20 29 29 36 20 16 6 17 -22 1 -20 -10 -21 -10 -8 5 10
13 31 17 88 17 l74 0 -7 -45z m-1274 0 c8 -5 17 -10 20 -10 3 0 16 -11 29 -24
18 -18 20 -23 7 -18 -10 4 -27 7 -39 7 -18 0 -19 2 -7 10 12 8 10 10 -10 10
-14 0 -31 9 -38 20 -10 17 -10 20 5 17 10 -1 25 -7 33 -12z m977 -6 c-6 -10
-20 -19 -30 -19 -10 0 -15 -4 -12 -10 3 -5 -3 -10 -14 -10 -10 0 -27 -3 -37
-7 -13 -5 -11 0 7 18 13 13 29 23 35 21 7 -1 14 3 17 11 2 7 14 13 26 14 18 2
19 -1 8 -18z m-837 -31 c0 -16 -3 -16 -20 -6 -11 7 -15 15 -10 16 7 3 6 9 -2
20 -12 14 -11 14 10 1 12 -8 22 -22 22 -31z m691 28 c-8 -9 -8 -15 -1 -18 5
-1 1 -9 -10 -16 -17 -10 -20 -10 -20 4 0 9 8 23 18 30 22 17 27 17 13 0z
m-656 -84 l7 -24 -21 21 c-12 12 -26 21 -33 21 -6 0 -3 6 8 14 21 16 25 12 39
-32z m635 28 c9 -6 10 -10 3 -10 -7 0 -21 -10 -33 -22 -23 -25 -25 -20 -8 17
12 28 16 29 38 15z m-845 -115 c292 -76 610 -84 903 -24 136 27 201 48 224 71
11 11 21 18 23 16 2 -1 15 -43 31 -92 31 -101 27 -132 -20 -155 -48 -23 -250
-69 -383 -86 -254 -35 -639 -7 -858 62 -128 40 -132 49 -89 190 l26 85 21 -20
c13 -12 65 -32 122 -47z m325 13 c0 -5 6 -6 13 -2 6 4 9 4 5 -1 -4 -4 -1 -14
7 -22 23 -22 18 -32 -9 -20 -13 6 -22 17 -19 23 2 7 -5 15 -17 19 -12 4 -19 9
-16 12 3 4 0 13 -7 21 -9 11 -4 11 16 -2 15 -10 27 -23 27 -28z m400 27 c-7
-8 -9 -15 -4 -15 5 0 1 -5 -9 -11 -10 -6 -21 -9 -23 -6 -8 7 8 37 16 32 5 -3
11 -1 15 5 3 5 9 10 12 10 3 0 0 -7 -7 -15z m-526 -25 c4 0 4 6 0 13 -4 6 6 1
22 -13 16 -14 30 -25 31 -25 1 -1 -13 -1 -32 -1 -18 0 -31 4 -29 8 3 4 -7 8
-21 8 -15 0 -24 4 -20 10 3 6 -2 10 -12 11 -16 0 -16 1 2 9 13 5 26 3 36 -6 8
-8 19 -14 23 -14z m673 12 c-9 -2 -15 -8 -12 -13 4 -5 -6 -9 -20 -9 -14 0 -24
-4 -21 -8 2 -4 -10 -8 -28 -8 l-32 0 25 22 c14 12 29 18 32 13 3 -6 11 -4 18
4 7 9 20 13 34 9 18 -5 19 -7 4 -10z m-200 -57 c-28 -15 -30 -13 -17 21 11 28
12 28 26 10 12 -17 11 -21 -9 -31z m-384 -2 c-7 -2 -19 -2 -25 0 -7 3 -2 5 12
5 14 0 19 -2 13 -5z m454 1 c-3 -3 -12 -4 -19 -1 -8 3 -5 6 6 6 11 1 17 -2 13
-5z" fill="#fff"/>
<path d="M1114 1072 c3 -5 1 -23 -3 -40 -7 -23 -6 -32 5 -36 9 -3 14 1 14 14
0 10 8 21 18 23 16 4 16 5 0 6 -10 0 -18 6 -18 12 0 6 10 9 23 7 16 -2 22 -10
23 -31 1 -35 15 -50 44 -45 55 8 50 73 -6 73 -16 0 -33 3 -39 6 -19 12 -67 20
-61 11z m121 -53 c0 -15 -7 -25 -18 -27 -22 -4 -33 24 -17 43 18 21 35 13 35
-16z" fill="#fff"/>
<path d="M1972 1061 c-6 -4 -10 -19 -8 -34 3 -31 16 -49 16 -23 0 9 5 14 10
11 6 -4 8 -11 5 -16 -4 -5 -2 -9 4 -9 16 0 24 21 13 32 -6 6 -8 16 -6 23 6 15
-18 26 -34 16z m23 -11 c3 -5 1 -10 -4 -10 -6 0 -11 5 -11 10 0 6 2 10 4 10 3
0 8 -4 11 -10z" fill="#fff"/>
<path d="M1913 1052 c-13 -2 -23 -8 -23 -14 0 -5 7 -7 16 -4 13 5 15 0 10 -27
l-6 -32 16 34 c18 40 16 47 -13 43z" fill="#fff"/>
<path d="M1280 1016 c0 -18 6 -39 14 -45 17 -14 46 -4 46 17 0 13 -3 12 -14
-4 -14 -18 -15 -18 -21 -1 -4 9 -5 29 -3 42 4 17 1 25 -8 25 -9 0 -14 -12 -14
-34z" fill="#fff"/>
<path d="M1335 1030 c3 -5 8 -10 11 -10 2 0 4 5 4 10 0 6 -5 10 -11 10 -5 0
-7 -4 -4 -10z" fill="#fff"/>
<path d="M1373 1028 c2 -7 0 -25 -4 -40 -4 -16 -4 -28 2 -28 5 0 9 12 9 28 l1
27 23 -28 c20 -25 24 -26 30 -12 3 9 6 26 5 38 -1 21 -1 20 -8 -2 l-7 -24 -17
26 c-18 27 -42 37 -34 15z" fill="#fff"/>
<path d="M1824 1026 c-8 -20 3 -36 24 -36 15 -1 15 -2 -2 -15 -11 -8 -15 -15
-10 -15 23 0 46 27 42 51 -4 28 -44 40 -54 15z m36 -11 c0 -8 -4 -15 -10 -15
-5 0 -10 7 -10 15 0 8 5 15 10 15 6 0 10 -7 10 -15z" fill="#fff"/>
<path d="M1464 989 c0 -38 1 -40 29 -37 51 5 63 63 16 76 -11 3 -11 2 -1 -6
18 -12 11 -57 -8 -57 -11 0 -14 9 -12 33 2 21 -1 32 -10 32 -8 0 -13 -14 -14
-41z" fill="#fff"/>
<path d="M1555 990 c0 -38 1 -40 33 -40 17 0 32 4 32 8 0 5 -8 8 -17 8 -10 -1
-19 4 -19 9 -1 6 2 9 7 8 5 -2 9 1 9 6 0 5 -8 11 -17 14 -15 3 -14 6 7 15 l25
11 -30 0 c-28 1 -30 -1 -30 -39z" fill="#fff"/>
<path d="M1635 990 c0 -37 2 -40 27 -40 26 0 58 22 58 40 0 18 -32 40 -58 40
-25 0 -27 -3 -27 -40z m55 0 c0 -20 -5 -30 -15 -30 -10 0 -15 10 -15 30 0 20
5 30 15 30 10 0 15 -10 15 -30z" fill="#fff"/>
<path d="M1768 1025 c-9 -9 4 -65 16 -65 8 0 11 12 8 35 -4 32 -11 42 -24 30z"/>
<path d="M2415 2240 c10 -11 20 -20 23 -20 3 0 -3 9 -13 20 -10 11 -20 20 -23
20 -3 0 3 -9 13 -20z" fill="#fff"/>
<path d="M2465 2173 c15 -24 30 -43 32 -43 7 0 -31 61 -46 73 -8 7 -2 -7 14
-30z"/>
<path d="M660 2140 c-6 -11 -8 -20 -6 -20 3 0 10 9 16 20 6 11 8 20 6 20 -3 0
-10 -9 -16 -20z" fill="#fff"/>
<path d="M2510 2100 c6 -11 13 -20 16 -20 2 0 0 9 -6 20 -6 11 -13 20 -16 20
-2 0 0 -9 6 -20z" fill="#fff"/>
<path d="M630 2090 c-6 -11 -8 -20 -6 -20 3 0 10 9 16 20 6 11 8 20 6 20 -3 0
-10 -9 -16 -20z" fill="#fff"/>
<path d="M606 2043 c-6 -14 -5 -15 5 -6 7 7 10 15 7 18 -3 3 -9 -2 -12 -12z" fill="#fff"/>
<path d="M511 1734 c0 -11 3 -14 6 -6 3 7 2 16 -1 19 -3 4 -6 -2 -5 -13z" fill="#fff"/>
<path d="M2641 1704 c0 -11 3 -14 6 -6 3 7 2 16 -1 19 -3 4 -6 -2 -5 -13z" fill="#fff"/>
<path d="M502 1650 c0 -14 2 -19 5 -12 2 6 2 18 0 25 -3 6 -5 1 -5 -13z" fill="#fff"/>
<path d="M502 1495 c0 -16 2 -22 5 -12 2 9 2 23 0 30 -3 6 -5 -1 -5 -18z" fill="#fff"/>
<path d="M2641 1434 c0 -11 3 -14 6 -6 3 7 2 16 -1 19 -3 4 -6 -2 -5 -13z" fill="#fff"/>
<path d="M2621 1324 c0 -11 3 -14 6 -6 3 7 2 16 -1 19 -3 4 -6 -2 -5 -13z" fill="#fff"/>
<path d="M640 1040 c6 -11 13 -20 16 -20 2 0 0 9 -6 20 -6 11 -13 20 -16 20
-2 0 0 -9 6 -20z" fill="#fff"/>
<path d="M2500 1030 c-6 -11 -8 -20 -6 -20 3 0 10 9 16 20 6 11 8 20 6 20 -3
0 -10 -9 -16 -20z" fill="#fff"/>
<path d="M718 923 c11 -16 30 -37 43 -48 12 -11 5 1 -16 28 -43 52 -57 63 -27
20z" fill="#fff"/>
<path d="M2424 918 l-19 -23 23 19 c21 18 27 26 19 26 -2 0 -12 -10 -23 -22z" fill="#fff"/>
<path d="M2330 815 c-41 -41 -72 -75 -69 -75 2 0 38 34 79 75 41 41 72 75 69
75 -2 0 -38 -34 -79 -75z" fill="#fff"/>
<path d="M810 815 c19 -19 36 -35 39 -35 3 0 -10 16 -29 35 -19 19 -36 35 -39
35 -3 0 10 -16 29 -35z" fill="#fff"/>
<path d="M880 755 c13 -14 26 -25 28 -25 3 0 -5 11 -18 25 -13 14 -26 25 -28
25 -3 0 5 -11 18 -25z" fill="#fff"/>
<path d="M2229 723 c-13 -16 -12 -17 4 -4 9 7 17 15 17 17 0 8 -8 3 -21 -13z" fill="#fff"/>
<path d="M920 726 c0 -2 8 -10 18 -17 15 -13 16 -12 3 4 -13 16 -21 21 -21 13z" fill="#fff"/>
<path d="M2180 689 c-22 -18 -22 -19 -3 -10 12 6 25 16 28 21 9 15 3 12 -25
-11z" fill="#fff"/>
<path d="M2080 630 c-9 -6 -10 -10 -3 -10 6 0 15 5 18 10 8 12 4 12 -15 0z" fill="#fff"/>
<path d="M1483 503 c9 -2 23 -2 30 0 6 3 -1 5 -18 5 -16 0 -22 -2 -12 -5z" fill="#fff"/>
<path d="M1648 503 c6 -2 18 -2 25 0 6 3 1 5 -13 5 -14 0 -19 -2 -12 -5z" fill="#fff"/>
<path d="M2295 2670 c9 -15 -67 -119 -89 -122 -14 -2 0 -16 51 -49 64 -43 70
-45 81 -29 9 15 8 17 -8 13 -20 -5 -70 23 -70 40 0 25 65 107 85 107 17 1 16
4 -10 25 -31 25 -51 33 -40 15z" fill="#fff"/>
<path d="M750 2608 c-14 -12 -18 -19 -9 -15 11 3 28 -7 50 -29 33 -34 33 -34
8 -33 -13 0 -45 4 -71 8 -43 7 -50 5 -70 -16 -17 -18 -18 -23 -5 -18 24 10
108 -82 100 -110 -5 -18 -3 -18 21 4 27 25 34 37 15 25 -10 -6 -89 62 -89 76
0 4 39 1 87 -6 48 -7 89 -12 91 -10 1 2 -19 28 -46 57 -27 30 -51 62 -53 71
-4 15 -7 14 -29 -4z" fill="#fff"/>
<path d="M2487 2512 c6 -25 -88 -105 -114 -95 -10 3 7 -20 37 -53 54 -58 79
-71 88 -46 2 7 -2 10 -10 7 -8 -3 -26 8 -42 24 l-28 29 48 46 c30 28 56 45 66
42 13 -3 11 4 -10 30 -30 38 -43 43 -35 16z" fill="#fff"/>
<path d="M566 2310 c26 -46 42 -85 38 -92 -4 -7 5 -2 19 11 32 29 34 34 8 26
-29 -9 -39 32 -14 57 21 21 58 15 49 -8 -8 -22 3 -17 29 14 25 27 33 48 15 37
-5 -3 -45 3 -89 15 -44 11 -84 20 -90 20 -5 0 10 -36 35 -80z m42 18 c-3 -7
-11 -13 -18 -13 -7 0 -15 6 -17 13 -3 7 4 12 17 12 13 0 20 -5 18 -12z" fill="#fff"/>
<path d="M2646 2337 c6 -17 -102 -91 -122 -83 -21 8 -18 1 26 -64 27 -40 45
-57 55 -54 20 8 19 22 0 20 -9 0 -23 12 -33 27 -17 28 -16 29 7 48 13 10 27
19 31 19 14 0 21 -32 9 -46 -16 -19 -4 -18 27 3 26 16 26 17 5 25 -27 10 -27
34 0 48 17 9 23 8 35 -7 8 -10 13 -28 10 -40 -3 -25 1 -28 22 -14 10 6 5 22
-25 69 -35 56 -60 82 -47 49z" fill="#fff"/>
<path d="M445 2270 c-12 -24 -13 -28 -1 -24 11 4 76 -62 76 -79 0 -10 -96 6
-106 19 -8 10 -14 7 -27 -16 -20 -34 -21 -41 -4 -34 7 2 51 0 97 -5 47 -5 86
-8 87 -7 2 1 -22 35 -51 75 -30 40 -52 79 -49 87 10 26 -6 14 -22 -16z" fill="#fff"/>
<path d="M2705 2101 c-59 -25 -74 -87 -35 -144 20 -29 28 -34 46 -27 13 6 26
4 34 -3 7 -7 5 4 -4 27 -21 50 -26 55 -26 28 0 -15 -6 -22 -20 -22 -24 0 -43
34 -35 60 13 40 105 66 133 38 17 -17 15 -53 -3 -68 -25 -20 -17 -29 15 -17
17 6 25 14 18 18 -6 4 -7 12 -3 18 11 20 -16 71 -46 86 -31 17 -45 18 -74 6z" fill="#fff"/>
<path d="M498 2040 c-1 -5 -42 -13 -90 -16 -49 -4 -88 -10 -88 -15 0 -4 27
-31 60 -60 37 -32 60 -60 60 -72 0 -29 17 -10 25 28 5 22 4 26 -4 15 -9 -13
-12 -13 -26 1 -24 23 -10 69 20 69 13 0 25 -7 27 -16 2 -8 10 5 19 30 9 25 13
46 9 46 -5 0 -10 -4 -12 -10z m-85 -75 c-7 -19 -17 -19 -32 -1 -10 11 -8 15 6
18 25 6 33 0 26 -17z" fill="#fff"/>
<path d="M2860 1866 c0 -8 -12 -17 -27 -20 -89 -16 -105 -17 -120 -4 -14 11
-15 10 -10 -7 3 -11 8 -38 12 -60 10 -64 15 -75 36 -75 19 0 19 0 -1 20 -38
38 -22 80 31 80 22 0 26 -29 7 -49 -11 -11 -10 -13 5 -7 10 3 25 6 34 6 12 0
12 2 -1 16 -25 25 -20 44 13 44 23 0 30 -6 35 -26 4 -15 2 -32 -6 -41 -10 -13
-9 -15 5 -12 10 2 18 7 18 12 2 29 -15 128 -22 133 -5 3 -9 -1 -9 -10z" fill="#fff"/>
<path d="M264 1812 c-14 -74 41 -95 94 -37 36 39 44 42 62 20 10 -12 7 -20
-19 -44 l-31 -29 29 -4 c22 -3 30 0 30 11 0 9 3 29 7 44 5 20 1 33 -11 47 -27
29 -53 24 -91 -16 -21 -24 -38 -34 -48 -31 -26 10 -18 37 15 51 l32 13 -32 5
c-28 4 -31 2 -37 -30z" fill="#fff"/>
<path d="M334 1549 c-10 -17 13 -36 27 -22 12 12 4 33 -11 33 -5 0 -12 -5 -16
-11z" fill="#fff"/>
<path d="M2784 1529 c-10 -17 13 -36 27 -22 12 12 4 33 -11 33 -5 0 -12 -5
-16 -11z" fill="#fff"/>
<path d="M2717 1351 c-4 -19 -5 -36 -2 -39 3 -3 5 0 5 6 0 13 40 14 79 3 22
-6 18 -10 -40 -40 -35 -19 -64 -34 -65 -35 -1 -1 -4 -14 -8 -30 -6 -26 -5 -28
8 -17 10 8 26 11 43 7 90 -22 103 -28 104 -44 0 -14 2 -14 9 3 12 27 13 65 1
47 -7 -12 -19 -12 -67 -2 l-59 12 84 43 c46 23 80 44 75 47 -5 3 -34 11 -64
18 -85 18 -88 20 -92 38 -2 10 -7 2 -11 -17z" fill="#fff"/>
<path d="M312 1363 c-18 -7 -42 -58 -42 -89 0 -16 13 -39 35 -61 30 -30 40
-35 68 -29 108 21 99 187 -10 185 -21 0 -44 -3 -51 -6z m91 -32 c68 -26 25
-111 -57 -111 -60 0 -76 68 -23 100 36 23 46 24 80 11z" fill="#fff"/>
<path d="M490 1129 c0 -19 -112 -74 -134 -66 -20 8 -20 0 4 -43 12 -21 19 -28
20 -18 0 10 13 24 30 33 27 14 30 14 39 -3 7 -13 6 -23 -1 -30 -16 -16 1 -15
31 2 23 13 23 13 2 19 -29 7 -27 31 4 45 23 11 26 9 36 -15 6 -15 8 -35 6 -45
-6 -21 6 -24 21 -5 7 8 0 31 -24 77 -18 36 -33 58 -34 49z" fill="#fff"/>
<path d="M2650 1105 c0 -8 -5 -15 -11 -15 -20 0 -39 -66 -28 -97 17 -50 84
-77 130 -53 36 20 69 120 39 120 -6 0 -14 10 -19 22 -8 22 -9 22 -25 -9 -20
-40 -20 -42 3 -36 24 6 35 -11 27 -42 -8 -31 -45 -41 -82 -22 -44 23 -67 52
-59 77 7 24 47 43 70 34 27 -11 16 5 -15 21 -27 14 -30 14 -30 0z" fill="#fff"/>
<path d="M2515 888 c-16 -24 -21 -37 -12 -30 14 12 24 8 71 -25 35 -24 56 -45
56 -58 l1 -20 15 20 c25 32 38 59 25 51 -17 -11 -131 71 -125 89 11 28 -3 15
-31 -27z" fill="#fff"/>
<path d="M605 804 c-38 -13 -80 -23 -92 -21 -21 4 -21 3 -5 -19 16 -22 40 -35
27 -15 -3 6 3 14 12 20 26 14 66 -24 52 -50 -6 -12 -16 -16 -27 -12 -10 3 -3
-9 17 -30 38 -41 43 -44 35 -23 -3 8 11 49 30 92 20 42 36 78 36 80 0 7 -14 3
-85 -22z m17 -36 c-11 -11 -32 -3 -32 12 0 12 34 18 39 7 2 -5 -1 -13 -7 -19z" fill="#fff"/>
<path d="M2423 783 c-27 -31 -30 -65 -7 -84 13 -10 24 -10 61 0 39 10 49 10
61 -3 24 -23 -3 -49 -45 -44 l-33 4 21 -22 21 -23 34 34 c38 38 42 56 17 80
-13 13 -27 15 -75 10 -55 -7 -58 -6 -58 15 0 19 4 22 35 18 l35 -4 -22 23
c-12 13 -22 23 -22 22 -1 0 -11 -12 -23 -26z" fill="#fff"/>
<path d="M775 710 c10 -16 -74 -123 -91 -116 -24 9 -15 -9 16 -32 35 -27 39
-27 33 -4 -2 10 5 26 17 37 l22 20 -7 -48 c-6 -42 -5 -49 16 -67 27 -22 47
-27 31 -7 -5 6 -12 29 -14 50 -4 33 -2 37 18 37 39 0 54 11 54 40 0 22 -11 38
-44 64 -43 36 -63 46 -51 26z m63 -64 c6 -27 -25 -48 -50 -35 -18 9 -18 11 -1
34 21 28 46 29 51 1z" fill="#fff"/>
<path d="M2265 639 c-61 -50 -65 -54 -43 -46 24 8 102 -85 95 -113 -3 -11 -3
-20 -1 -20 8 0 124 94 124 100 0 4 -8 14 -17 21 -15 12 -16 12 -11 -2 7 -17
-28 -59 -49 -59 -5 0 -18 9 -29 21 -18 20 -18 21 0 35 10 7 23 11 28 7 6 -3 5
4 -1 15 -14 26 -37 42 -28 19 3 -8 -1 -21 -10 -28 -13 -11 -18 -10 -34 10 -19
23 -19 23 6 43 14 11 33 17 41 14 10 -4 14 -1 12 6 -8 24 -33 17 -83 -23z" fill="#fff"/>
<path d="M926 584 c-9 -24 -7 -28 7 -15 10 8 19 7 33 -4 18 -14 18 -16 -13
-72 -19 -35 -38 -57 -47 -57 -27 3 -18 -12 19 -29 42 -20 54 -22 37 -5 -8 8
-5 22 15 57 14 25 31 52 38 59 15 17 45 5 45 -19 0 -23 15 -25 24 -4 3 9 -3
20 -17 29 -67 41 -128 76 -131 76 -2 0 -7 -7 -10 -16z" fill="#fff"/>
<path d="M2045 513 c-35 -19 -45 -28 -32 -31 21 -4 85 -124 68 -130 -6 -2 -11
-8 -11 -13 0 -12 112 45 130 66 22 27 17 81 -10 110 -31 33 -79 32 -145 -2z
m115 -25 c24 -40 25 -66 3 -90 -27 -30 -42 -21 -68 39 -30 67 -27 83 15 83 23
0 35 -7 50 -32z" fill="#fff"/>
<path d="M1246 384 c-27 -36 -58 -69 -70 -74 -19 -7 -17 -9 14 -17 38 -11 53
-7 30 7 -13 8 -13 11 1 25 24 24 69 10 69 -21 0 -13 -6 -24 -12 -25 -20 -2 34
-17 62 -18 20 0 22 1 9 9 -10 6 -21 37 -29 87 -7 43 -16 81 -19 86 -4 4 -29
-23 -55 -59z m34 -14 c0 -11 -7 -20 -15 -20 -17 0 -18 2 -9 24 9 23 24 20 24
-4z" fill="#fff"/>
<path d="M1725 423 c-34 -5 -59 -23 -32 -23 9 0 17 -3 17 -7 0 -5 4 -35 10
-67 7 -44 6 -63 -3 -74 -10 -12 -9 -14 8 -9 11 3 44 11 73 17 32 8 58 20 67
33 23 33 19 84 -10 112 -24 25 -52 29 -130 18z m99 -35 c32 -45 10 -118 -35
-118 -19 0 -23 9 -38 93 l-8 47 33 0 c23 0 38 -7 48 -22z" fill="#fff"/>
<path d="M1430 411 c0 -5 6 -11 13 -14 16 -6 11 -124 -5 -144 -8 -10 -3 -13
22 -13 27 0 30 2 21 14 -7 8 -11 37 -9 66 l3 52 55 -69 55 -68 8 80 c5 44 14
83 20 87 7 4 -4 7 -23 7 -19 0 -29 -3 -22 -6 7 -3 12 -23 12 -51 l-1 -47 -22
25 c-12 14 -31 37 -42 51 -19 25 -85 48 -85 30z" fill="#fff"/>
<path d="M890 2830 c-9 -6 -10 -10 -3 -10 6 0 15 5 18 10 8 12 4 12 -15 0z" fill="#fff"/>
<path d="M767 2755 c-20 -14 -37 -28 -37 -31 0 -2 18 8 40 22 35 23 47 34 37
34 -1 0 -19 -11 -40 -25z" fill="#fff"/>
<path d="M2400 2746 c0 -2 8 -10 18 -17 15 -13 16 -12 3 4 -13 16 -21 21 -21
13z"/>
<path d="M699 2703 c-13 -16 -12 -17 4 -4 9 7 17 15 17 17 0 8 -8 3 -21 -13z" fill="#fff"/>
<path d="M2440 2716 c0 -2 8 -10 18 -17 15 -13 16 -12 3 4 -13 16 -21 21 -21
13z" fill="#fff"/>
<path d="M2480 2687 c0 -2 15 -16 33 -33 l32 -29 -29 33 c-28 30 -36 37 -36
29z"/>
<path d="M639 2653 l-24 -28 28 24 c25 23 32 31 24 31 -2 0 -14 -12 -28 -27z" fill="#fff"/>
<path d="M2590 2588 c24 -27 45 -48 47 -48 8 0 0 9 -44 50 l-48 45 45 -47z" fill="#fff"/>
<path d="M549 2573 l-24 -28 28 24 c25 23 32 31 24 31 -2 0 -14 -12 -28 -27z" fill="#fff"/>
<path d="M484 2498 l-29 -33 33 29 c17 17 32 31 32 33 0 8 -8 1 -36 -29z" fill="#fff"/>
<path d="M2640 2527 c0 -2 15 -16 33 -33 l32 -29 -29 33 c-28 30 -36 37 -36
29z"/>
<path d="M439 2443 c-13 -16 -12 -17 4 -4 9 7 17 15 17 17 0 8 -8 3 -21 -13z" fill="#fff"/>
<path d="M2700 2456 c0 -2 8 -10 18 -17 15 -13 16 -12 3 4 -13 16 -21 21 -21
13z" fill="#fff"/>
<path d="M402 2393 c-26 -38 -34 -53 -29 -53 2 0 16 18 31 40 29 45 28 56 -2
13z" fill="#fff"/>
<path d="M2730 2416 c0 -2 8 -10 18 -17 15 -13 16 -12 3 4 -13 16 -21 21 -21
13z" fill="#fff"/>
<path d="M2810 2300 c6 -11 13 -20 16 -20 2 0 0 9 -6 20 -6 11 -13 20 -16 20
-2 0 0 -9 6 -20z" fill="#fff"/>
<path d="M316 2253 c-6 -14 -5 -15 5 -6 7 7 10 15 7 18 -3 3 -9 -2 -12 -12z" fill="#fff"/>
<path d="M2846 2237 c3 -10 9 -15 12 -12 3 3 0 11 -7 18 -10 9 -11 8 -5 -6z" fill="#fff"/>
<path d="M2890 2145 c0 -5 5 -17 10 -25 5 -8 10 -10 10 -5 0 6 -5 17 -10 25
-5 8 -10 11 -10 5z" fill="#fff"/>
<path d="M161 1794 c0 -11 3 -14 6 -6 3 7 2 16 -1 19 -3 4 -6 -2 -5 -13z" fill="#fff"/>
<path d="M2991 1794 c0 -11 3 -14 6 -6 3 7 2 16 -1 19 -3 4 -6 -2 -5 -13z" fill="#fff"/>
<path d="M3001 1724 c0 -11 3 -14 6 -6 3 7 2 16 -1 19 -3 4 -6 -2 -5 -13z" fill="#fff"/>
<path d="M151 1714 c0 -11 3 -14 6 -6 3 7 2 16 -1 19 -3 4 -6 -2 -5 -13z" fill="#fff"/>
<path d="M152 1435 c0 -16 2 -22 5 -12 2 9 2 23 0 30 -3 6 -5 -1 -5 -18z" fill="#fff"/>
<path d="M3002 1420 c0 -14 2 -19 5 -12 2 6 2 18 0 25 -3 6 -5 1 -5 -13z" fill="#fff"/>
<path d="M161 1354 c0 -11 3 -14 6 -6 3 7 2 16 -1 19 -3 4 -6 -2 -5 -13z" fill="#fff"/>
<path d="M250 1035 c0 -5 5 -17 10 -25 5 -8 10 -10 10 -5 0 6 -5 17 -10 25 -5
8 -10 11 -10 5z" fill="#fff"/>
<path d="M2871 963 c-10 -26 -10 -27 4 -9 8 11 15 23 15 28 0 15 -7 8 -19 -19z" fill="#fff"/>
<path d="M2846 913 c-6 -14 -5 -15 5 -6 7 7 10 15 7 18 -3 3 -9 -2 -12 -12z" fill="#fff"/>
<path d="M340 850 c6 -11 13 -20 16 -20 2 0 0 9 -6 20 -6 11 -13 20 -16 20 -2
0 0 -9 6 -20z" fill="#fff"/>
<path d="M2810 850 c-6 -11 -8 -20 -6 -20 3 0 10 9 16 20 6 11 8 20 6 20 -3 0
-10 -9 -16 -20z" fill="#fff"/>
<path d="M2775 794 c-9 -15 -12 -23 -6 -20 11 7 35 46 28 46 -3 0 -12 -12 -22
-26z" fill="#fff"/>
<path d="M400 756 c0 -2 8 -10 18 -17 15 -13 16 -12 3 4 -13 16 -21 21 -21 13z" fill="#fff"/>
<path d="M2690 679 c-35 -45 -98 -113 -139 -152 -51 -47 -59 -56 -23 -27 57
46 151 147 203 218 52 71 26 47 -41 -39z" fill="#fff"/>
<path d="M430 716 c0 -2 8 -10 18 -17 15 -13 16 -12 3 4 -13 16 -21 21 -21 13z" fill="#fff"/>
<path d="M460 677 c0 -2 15 -16 33 -33 l32 -29 -29 33 c-28 30 -36 37 -36 29z" fill="#fff"/>
<path d="M560 568 c24 -27 45 -48 47 -48 8 0 0 9 -44 50 l-48 45 45 -47z" fill="#fff"/>
<path d="M620 517 c0 -2 15 -16 33 -33 l32 -29 -29 33 c-28 30 -36 37 -36 29z" fill="#fff"/>
<path d="M690 456 c0 -2 8 -10 18 -17 15 -13 16 -12 3 4 -13 16 -21 21 -21 13z" fill="#fff"/>
<path d="M2449 443 c-13 -16 -12 -17 4 -4 16 13 21 21 13 21 -2 0 -10 -8 -17
-17z" fill="#fff"/>
<path d="M730 426 c0 -2 8 -10 18 -17 15 -13 16 -12 3 4 -13 16 -21 21 -21 13z" fill="#fff"/>
<path d="M2409 413 c-13 -16 -12 -17 4 -4 16 13 21 21 13 21 -2 0 -10 -8 -17
-17z" fill="#fff"/>
<path d="M2304 344 c-18 -14 -18 -15 4 -4 12 6 22 13 22 15 0 8 -5 6 -26 -11z" fill="#fff"/>
<path d="M2130 260 c-8 -5 -10 -10 -5 -10 6 0 17 5 25 10 8 5 11 10 5 10 -5 0
-17 -5 -25 -10z" fill="#fff"/>
<path d="M1348 163 c7 -3 16 -2 19 1 4 3 -2 6 -13 5 -11 0 -14 -3 -6 -6z" fill="#fff"/>
<path d="M1798 163 c7 -3 16 -2 19 1 4 3 -2 6 -13 5 -11 0 -14 -3 -6 -6z" fill="#fff"/>
<path d="M1418 153 c7 -3 16 -2 19 1 4 3 -2 6 -13 5 -11 0 -14 -3 -6 -6z" fill="#fff"/>
<path d="M1728 153 c6 -2 18 -2 25 0 6 3 1 5 -13 5 -14 0 -19 -2 -12 -5z" fill="#fff"/>
</g>
</svg>
