<?xml version="1.0" standalone="no"?>
<!DOCTYPE svg PUBLIC "-//W3C//DTD SVG 20010904//EN"
 "http://www.w3.org/TR/2001/REC-SVG-20010904/DTD/svg10.dtd">
<svg version="1.0" xmlns="http://www.w3.org/2000/svg"
 width="5000.000000pt" height="1276.000000pt" viewBox="0 0 5000.000000 1276.000000"
 preserveAspectRatio="xMidYMid meet">

<g transform="translate(0.000000,1276.000000) scale(0.100000,-0.100000)"
fill="#000000" stroke="none">
<path d="M21061 12594 l-434 -164 -2257 0 -2258 0 -132 -45 c-869 -298 -1747
-731 -2488 -1227 -1667 -1118 -2668 -2557 -2927 -4213 -51 -325 -60 -462 -60
-900 0 -428 10 -579 56 -895 150 -1038 562 -1953 1227 -2730 718 -838 1746
-1500 2977 -1916 786 -267 1583 -419 2545 -486 233 -16 1007 -16 1225 0 595
44 1099 118 1515 222 262 66 319 86 369 133 130 125 435 554 623 877 409 703
694 1401 762 1871 9 59 16 125 16 148 l0 41 -333 166 -333 167 -834 -839
c-459 -462 -952 -957 -1095 -1101 l-259 -263 -151 0 c-369 0 -851 43 -1276
115 -1210 203 -2276 701 -2997 1399 -274 265 -436 457 -620 733 -435 652 -679
1389 -764 2308 -20 212 -16 891 5 1125 46 495 132 920 267 1321 411 1223 1269
2084 2465 2472 520 169 1045 231 1651 197 791 -45 1451 -212 2099 -530 159
-78 388 -203 415 -227 2 -2 79 -374 170 -826 l166 -822 552 -3 552 -2 0 2030
c0 1116 -1 2030 -2 2029 -2 0 -198 -74 -437 -165z" fill="#fff"/>
<path d="M7905 12544 l-430 -163 -1763 -1 -1763 0 -182 -66 c-1056 -382 -1854
-851 -2432 -1429 -484 -484 -775 -1029 -871 -1635 -27 -165 -27 -627 -1 -785
118 -717 505 -1275 1217 -1754 525 -354 954 -553 2320 -1081 904 -349 1218
-487 1581 -696 261 -149 456 -293 633 -464 266 -258 414 -524 472 -845 23
-131 23 -396 0 -550 -55 -356 -198 -696 -417 -987 -91 -121 -335 -361 -459
-450 -115 -83 -269 -175 -370 -220 l-64 -29 -320 11 c-723 24 -1278 102 -1768
251 -56 17 -119 35 -138 41 -19 5 -105 36 -191 69 -490 185 -914 430 -1364
791 -42 33 -57 53 -68 88 -7 25 -105 370 -217 768 -137 483 -209 722 -217 722
-19 0 -1077 -320 -1085 -328 -3 -4 215 -794 486 -1757 l492 -1750 2202 -3
2201 -2 149 50 c754 251 1470 649 2077 1151 153 127 527 507 647 657 571 716
821 1464 758 2258 -32 401 -123 742 -285 1070 -143 290 -313 523 -559 769
-324 323 -733 601 -1281 870 -454 223 -749 342 -1675 675 -866 311 -1142 421
-1465 580 -476 235 -747 470 -890 773 -82 172 -112 338 -102 566 26 636 447
1232 1084 1533 l102 48 213 0 c117 0 299 -5 403 -10 1118 -60 1828 -276 2560
-777 l130 -90 3 -551 2 -552 550 0 550 0 0 1700 c0 1354 -3 1700 -12 1699 -7
0 -206 -75 -443 -165z" fill="#fff"/>
<path d="M27860 12086 l0 -284 -1981 -5109 -1982 -5109 -336 -112 -336 -112
-378 0 -377 0 0 -550 0 -550 2260 0 2260 0 0 550 0 550 -602 0 -602 0 -168
168 -169 167 422 1180 c232 649 428 1199 436 1223 l15 42 2198 0 c2084 0 2198
-1 2205 -17 43 -110 875 -2398 875 -2406 0 -7 -73 -85 -162 -174 l-163 -163
-602 0 -603 0 0 -550 0 -550 2850 0 2850 0 0 550 0 550 -382 0 -383 0 -320
106 c-176 59 -325 111 -332 118 -8 8 -3808 9783 -4155 10689 l-30 77 -1154 0
-1154 0 0 -284z m1564 -4401 l872 -2350 -1750 -3 c-962 -1 -1751 0 -1753 2 -3
2 1685 4559 1737 4691 7 17 14 26 17 20 2 -5 397 -1067 877 -2360z" fill="#fff"/>
<path d="M37140 11815 l0 -555 713 0 712 0 108 -108 107 -107 -2 -4725 -3
-4724 -435 -108 -435 -107 -392 -1 -393 0 0 -550 0 -550 3960 0 3960 0 93 46
c684 343 1491 869 2110 1376 323 264 728 648 997 943 948 1042 1523 2200 1700
3419 150 1034 11 2044 -399 2901 -707 1476 -2231 2571 -4301 3090 -615 154
-1164 237 -1950 297 -112 8 -993 12 -3152 15 l-2998 4 0 -556z m5330 -578
c637 -68 1147 -183 1658 -373 720 -269 1308 -637 1798 -1128 356 -357 591
-685 811 -1131 328 -667 486 -1401 486 -2270 1 -742 -101 -1378 -323 -2029
-287 -838 -776 -1564 -1375 -2041 -430 -343 -915 -561 -1425 -641 -142 -22
-551 -30 -778 -15 -670 44 -1203 173 -1645 398 -123 63 -272 154 -349 215
l-38 30 0 4505 0 4505 518 -5 c366 -3 559 -9 662 -20z" fill="#fff"/>
</g>
</svg>
